Coordinates
version=1
nRows=26
nColumns=24
inDegrees=yes

Units are S.I. units (second, meters, Newtons, ...)
Angles are in degrees.

endheader
time	pelvis_tilt	pelvis_list	pelvis_rotation	pelvis_tx	pelvis_ty	pelvis_tz	hip_flexion_r	hip_adduction_r	hip_rotation_r	knee_angle_r	ankle_angle_r	subtalar_angle_r	mtp_angle_r	hip_flexion_l	hip_adduction_l	hip_rotation_l	knee_angle_l	ankle_angle_l	subtalar_angle_l	mtp_angle_l	lumbar_extension	lumbar_bending	lumbar_rotation
      4.17000000	     -4.93849921	     -5.95944317	      0.41210100	     -0.10983357	     -0.01749150	     -0.18260370	     11.84876231	     15.24361371	      9.03948604	    -19.92847609	      0.87017923	     -6.91140282	     10.16568935	     30.77387573	     -8.30905961	     -9.72980466	    -67.05256177	     -5.53840043	    -10.10147751	    -18.49681463	      5.83544761	      5.10930288	     -1.47454009
      4.17500000	     -4.93769616	     -5.77064655	      0.18139619	     -0.10404165	     -0.01703660	     -0.18211981	     11.14738225	     15.10345647	      9.44425193	    -19.59159851	      1.13920380	     -6.87324023	     10.13697912	     31.44165976	     -8.10999088	     -9.98207551	    -66.20264888	     -4.97780450	     -9.79032043	    -18.06093712	      5.78180723	      4.95156701	     -1.18689359
      4.18000000	     -4.91181619	     -5.59209878	     -0.10152641	     -0.09824363	     -0.01656004	     -0.18153172	     10.41171882	     14.97732026	      9.86610802	    -19.24140533	      1.35413501	     -6.79299850	     10.08622815	     32.03224995	     -7.97321790	    -10.28790204	    -65.26171009	     -4.42533809	     -9.35455440	    -17.51579823	      5.69992535	      4.81081421	     -0.79518991
      4.18500000	     -4.80687814	     -5.41557945	     -0.31964468	     -0.09244257	     -0.01602131	     -0.18097287	      9.56272402	     14.84889100	     10.35478657	    -18.85497019	      1.55086635	     -6.81416223	      9.74912713	     32.50297623	     -7.81075259	    -10.53351424	    -64.17150606	     -4.22143794	     -9.05114238	    -16.08376262	      5.53432199	      4.65064060	     -0.50714089
      4.19000000	     -4.89665047	     -5.24118311	     -0.59143548	     -0.08674535	     -0.01579721	     -0.18044616	      9.01294558	     14.70238704	     10.67317956	    -18.57035486	      1.79052118	     -6.68395407	      9.83645113	     33.18816843	     -7.66314957	    -10.81258088	    -63.10185505	     -3.65394421	     -8.53035128	    -15.68718727	      5.56521062	      4.52047674	     -0.11663126
      4.19500000	     -4.91542518	     -5.06611963	     -0.83352811	     -0.08101965	     -0.01552915	     -0.17995164	      8.36477445	     14.55001613	     11.02635168	    -18.25119166	      1.99262224	     -6.63889350	      9.83607429	     33.75566450	     -7.51011103	    -11.09314584	    -61.93645225	     -3.11388699	     -7.98311143	    -15.28141107	      5.52467689	      4.38319412	      0.20989191
      4.20000000	     -4.92160082	     -4.89998991	     -1.06013488	     -0.07531643	     -0.01529644	     -0.17949190	      7.70938118	     14.40210766	     11.38566218	    -17.93809186	      2.17844900	     -6.63548701	      9.78505777	     34.27729672	     -7.36135569	    -11.36796636	    -60.68688311	     -2.58586481	     -7.40388217	    -14.86394974	      5.46431939	      4.25949898	      0.52793804
      4.20500000	     -4.93784262	     -4.73662290	     -1.26381307	     -0.06961440	     -0.01513053	     -0.17909434	      7.07643447	     14.24882592	     11.71872850	    -17.64030654	      2.35621483	     -6.66066848	      9.70504100	     34.78179642	     -7.19277945	    -11.61068726	    -59.36619445	     -2.07621773	     -6.81163437	    -14.47954366	      5.42130400	      4.13537175	      0.80302743
      4.21000000	     -4.94516961	     -4.58592271	     -1.43744812	     -0.06395319	     -0.01500474	     -0.17877138	      6.44217483	     14.10071003	     12.04596076	    -17.34829118	      2.51876675	     -6.71485786	      9.57265461	     35.25043979	     -7.01071891	    -11.81383715	    -57.96818971	     -1.59886453	     -6.20604498	    -14.10579941	      5.35769399	      4.03241630	      1.07981810
      4.21500000	     -4.98608715	     -4.44708648	     -1.60141042	     -0.05826514	     -0.01496883	     -0.17848230	      5.85444902	     13.95747969	     12.30611433	    -17.06323606	      2.68735803	     -6.75538005	      9.47619839	     35.72332910	     -6.84722605	    -12.04005352	    -56.51024301	     -1.11473635	     -5.55444430	    -13.83071513	      5.33647722	      3.93756227	      1.29007480
      4.22000000	     -5.00799994	     -4.31561881	     -1.74036997	     -0.05260873	     -0.01495903	     -0.17826896	      5.25536165	     13.81565672	     12.56347560	    -16.79058821	      2.84418052	     -6.82676485	      9.34174872	     36.14069925	     -6.65686630	    -12.21163829	    -54.97505462	     -0.65418486	     -4.88615053	    -13.61276715	      5.28822674	      3.85795060	      1.51599309
      4.22500000	     -5.05713724	     -4.20168623	     -1.86316733	     -0.04694393	     -0.01502844	     -0.17810613	      4.69404299	     13.68371389	     12.76628281	    -16.52097279	      2.99710655	     -6.87352564	      9.24518412	     36.55766221	     -6.48170039	    -12.39335045	    -53.38358737	     -0.21163562	     -4.18917357	    -13.47234719	      5.27268083	      3.79409716	      1.67535424
      4.23000000	     -5.09545889	     -4.09827489	     -1.96797076	     -0.04130260	     -0.01513456	     -0.17799995	      4.12934956	     13.55625302	     12.95017001	    -16.25977820	      3.14205160	     -6.92052846	      9.14678953	     36.92716862	     -6.29870757	    -12.55178666	    -51.72692619	      0.21290854	     -3.46784475	    -13.39494502	      5.23798046	      3.74835050	      1.84182941
      4.23500000	     -5.13537037	     -4.00616521	     -2.06308139	     -0.03566512	     -0.01528742	     -0.17796187	      3.57528540	     13.43245074	     13.10013403	    -16.00826708	      3.28832779	     -6.95552024	      9.06241091	     37.26028545	     -6.11264408	    -12.69506365	    -50.01057223	      0.61490386	     -2.72059421	    -13.37838834	      5.19917098	      3.71667840	      1.99369054
      4.24000000	     -5.17918014	     -3.93144929	     -2.14498663	     -0.03002556	     -0.01548912	     -0.17795187	      3.03583067	     13.32219981	     13.21257496	    -15.77116796	      3.42985306	     -6.95687185	      9.00730141	     37.56275941	     -5.93802635	    -12.83697173	    -48.24188300	      0.98730053	     -1.95190466	    -13.41042530	      5.16680098	      3.70223434	      2.12149126
      4.24500000	     -5.22060222	     -3.87080406	     -2.22371948	     -0.02439121	     -0.01573529	     -0.17798010	      2.50343333	     13.22023294	     13.29026872	    -15.54577749	      3.57671377	     -6.92304141	      8.98546250	     37.82507538	     -5.77318238	    -12.97822912	    -46.42536945	      1.34029712	     -1.15212212	    -13.47885399	      5.12668799	      3.70392262	      2.24465297
      4.25000000	     -5.26139348	     -3.82236482	     -2.29903540	     -0.01876943	     -0.01602723	     -0.17804223	      1.98265284	     13.12445680	     13.33326576	    -15.33565838	      3.72529459	     -6.84389104	      9.00256006	     38.05372707	     -5.61884599	    -13.12886281	    -44.57078613	      1.67807229	     -0.31913558	    -13.56633379	      5.07775670	      3.72338777	      2.36008057
      4.25500000	     -5.30511864	     -3.79284908	     -2.37426028	     -0.01312513	     -0.01636377	     -0.17810928	      1.47153689	     13.04396154	     13.34366486	    -15.13641742	      3.87661198	     -6.71421051	      9.06304289	     38.25255193	     -5.49052483	    -13.29936334	    -42.68739749	      1.98998573	      0.55967732	    -13.64630688	      5.03636281	      3.75621421	      2.45918397
      4.26000000	     -5.33196637	     -3.77679662	     -2.45588439	     -0.00747722	     -0.01673145	     -0.17818293	      0.95446406	     12.97252524	     13.32553259	    -14.95959602	      4.03734731	     -6.52553981	      9.17039416	     38.39927216	     -5.38170271	    -13.49064723	    -40.78072815	      2.30544802	      1.48390762	    -13.71821174	      4.97301788	      3.80562226	      2.57580066
      4.26500000	     -5.35932125	     -3.77400152	     -2.54067653	     -0.00182556	     -0.01714162	     -0.17827822	      0.44769144	     12.90787095	     13.28009893	    -14.79724494	      4.20124601	     -6.28266816	      9.31890204	     38.52056890	     -5.29094407	    -13.70546661	    -38.86423017	      2.61262749	      2.45902718	    -13.76734809	      4.90324218	      3.87172128	      2.68767050
      4.27000000	     -5.39287867	     -3.78291454	     -2.63562906	      0.00383963	     -0.01760273	     -0.17836160	     -0.04150954	     12.85281195	     13.21222734	    -14.65498924	      4.36997549	     -6.00132305	      9.50001522	     38.62398772	     -5.22460793	    -13.95112820	    -36.94890321	      2.91869109	      3.49999253	    -13.77468371	      4.83714548	      3.94272136	      2.77228554
      4.27500000	     -5.39903385	     -3.80584565	     -2.73669139	      0.00953927	     -0.01807522	     -0.17843687	     -0.55527443	     12.80528047	     13.12858992	    -14.52909309	      4.55084678	     -5.64556945	      9.72968089	     38.67329174	     -5.18215285	    -14.23318739	    -35.04443549	      3.24076501	      4.60945708	    -13.75248594	      4.75048237	      4.02971360	      2.89611116
      4.28000000	     -5.38657042	     -3.83694198	     -2.83708873	      0.01525956	     -0.01857405	     -0.17852786	     -1.07823018	     12.75891159	     13.03141661	    -14.42784803	      4.74153622	     -5.22525631	     10.00384646	     38.68712995	     -5.15223611	    -14.55837857	    -33.16642251	      3.57931950	      5.78667082	    -13.70553333	      4.64115203	      4.12925452	      3.03039946
      4.28500000	     -5.36636953	     -3.87383728	     -2.95979397	      0.02100703	     -0.01909758	     -0.17861195	     -1.60018711	     12.71136054	     12.91956376	    -14.34794172	      4.93979372	     -4.75899847	     10.31290516	     38.67162002	     -5.13661090	    -14.89297449	    -31.31763861	      3.93630343	      7.00636919	    -13.64645894	      4.52063940	      4.23238854	      3.17025016
      4.29000000	     -5.34729126	     -3.91714706	     -3.07741336	      0.02679882	     -0.01966355	     -0.17868928	     -2.11523591	     12.66798843	     12.80484844	    -14.28636241	      5.13392743	     -4.26669642	     10.63896677	     38.65000238	     -5.12699021	    -15.24648410	    -29.51936352	      4.29835074	      8.27650740	    -13.58525255	      4.40752646	      4.33811499	      3.29300769
      4.29500000	     -5.30431789	     -3.95671361	     -3.21960185	      0.03262348	     -0.02023722	     -0.17877883	     -2.64195747	     12.60980504	     12.68682697	    -14.25743869	      5.35507850	     -3.71985104	     11.01687449	     38.58038318	     -5.11533384	    -15.59589982	    -27.76019379	      4.69163255	      9.54214306	    -13.54539934	      4.27147133	      4.43991163	      3.44146598
